<?xml version="1.0" encoding="utf-8"?>
<!-- Generator: Adobe Illustrator 19.0.1, SVG Export Plug-In . SVG Version: 6.00 Build 0)  -->
<svg version="1.1" id="Camada_1" xmlns="http://www.w3.org/2000/svg" xmlns:xlink="http://www.w3.org/1999/xlink" x="0px" y="0px"
	 width="221.2px" height="45.9px" viewBox="-309 572.6 221.2 45.9" style="enable-background:new -309 572.6 221.2 45.9;"
	 xml:space="preserve">
<style type="text/css">
	.st0{fill:#3C3C3B;}
	.st1{fill:#FF7155;}
	.st2{fill:#895346;}
</style>
<g id="logo_full" transform="translate(293 38.027)">
	<g id="Group_1">
		<path id="Path_1" class="st0" d="M-540.2,576.3h-6.6v-31.1h6.6v13.2l12.7-13.3h8.4l-11.9,12.4l12.7,18.8h-8l-9.2-13.7l-4.8,4.8
			L-540.2,576.3L-540.2,576.3z"/>
		<path id="Path_2" class="st0" d="M-512.7,572.3c-3-3.2-4.6-7.4-4.4-11.7c0-4.8,1.5-8.7,4.5-11.6c2.8-2.8,6.7-4.4,10.7-4.3
			c4.1,0,7.5,2,10.1,5.9v-5.4h6.6v31.2h-6.6v-5.1c-1.2,1.8-2.9,3.2-4.8,4.1c-1.8,0.9-3.8,1.4-5.8,1.4
			C-506.3,576.8-510,575.2-512.7,572.3z M-510.5,560.9c-0.1,2.7,1,5.4,2.9,7.3c1.8,1.8,4.2,2.8,6.7,2.8c2.5,0.1,4.9-1,6.6-2.8
			c1.8-2,2.8-4.6,2.7-7.3c0.1-2.7-0.9-5.4-2.7-7.4c-1.6-1.9-4.1-3-6.6-3c-2.6,0-5,1.1-6.7,3C-509.6,555.5-510.6,558.2-510.5,560.9z"
			/>
		<path id="Path_3" class="st0" d="M-471.5,576.3h-6.5v-31.1h6.6v13.2l12.7-13.3h8.4l-11.8,12.4l12.7,18.8h-8l-9.3-13.7l-4.8,4.8
			V576.3z"/>
		<path id="Path_4" class="st0" d="M-443.9,572.3c-3-3.2-4.6-7.4-4.4-11.7c0-4.8,1.5-8.7,4.5-11.6c2.8-2.8,6.7-4.4,10.7-4.3
			c4.1,0,7.5,2,10.1,5.9v-5.4h6.6v31.2h-6.6v-5.1c-1.2,1.8-2.9,3.2-4.8,4.1c-1.8,0.9-3.8,1.4-5.8,1.4
			C-437.5,576.8-441.2,575.2-443.9,572.3z M-441.7,560.9c-0.1,2.7,1,5.4,2.9,7.3c1.8,1.8,4.2,2.8,6.7,2.8c2.5,0.1,4.9-1,6.6-2.8
			c1.8-2,2.8-4.6,2.7-7.3c0.1-2.7-0.9-5.4-2.7-7.4c-1.6-1.9-4.1-3-6.6-3c-2.6,0-5,1.1-6.7,3C-440.8,555.5-441.8,558.2-441.7,560.9z"
			/>
		<path id="Path_5" class="st0" d="M-387.4,562v-16.9h6.6v31.2h-6.6v-5.7c-1,1.9-2.6,3.4-4.4,4.5c-1.8,1.1-3.9,1.6-6,1.6
			c-3.2,0.1-6.2-1-8.5-3.2c-2.2-2.1-3.3-5.3-3.3-9.3v-19.1h6.6v17.1c0,5.7,2.4,8.6,7.2,8.6c2.2,0,4.3-0.8,5.9-2.3
			C-388.3,567.1-387.4,564.9-387.4,562z"/>
	</g>
	<path id="Path_6" class="st1" d="M-557.2,537.8l-41.7,41.6c2.4,0.6,4.8,1,7.2,1.1l16.4-16.4l2,2l-14.4,14.3
		c8.2-0.6,15.8-4.1,21.6-9.9C-557.6,561.9-554.2,549.5-557.2,537.8z"/>
	<path id="Path_7" class="st2" d="M-592.1,544.6c-5.8,5.9-9.3,13.6-9.9,21.8l24.1-24l2,2l-26,26c0.1,2.4,0.5,4.8,1.1,7.1l41.7-41.8
		C-570.9,532.6-583.5,536-592.1,544.6z"/>
</g>
</svg>
